<svg width="144" height="225" viewBox="0 0 144 225" fill="none" xmlns="http://www.w3.org/2000/svg">
<path d="M72 224.312C111.765 224.312 144 192.077 144 152.312C144 112.548 111.765 80.3125 72 80.3125C32.2355 80.3125 0 112.548 0 152.312C0 192.077 32.2355 224.312 72 224.312Z" fill="white"/>
<path d="M40.5637 47.8233C46.7693 70.763 68.025 84.9702 68.025 84.9702C68.025 84.9702 79.2193 61.9847 73.0137 39.045C66.808 16.1053 45.5524 1.89819 45.5524 1.89819C45.5524 1.89819 34.3581 24.8836 40.5637 47.8233Z" fill="#F7F9FD"/>
<path d="M49.6824 42.8933C66.7107 59.4697 68.7905 84.9514 68.7905 84.9514C68.7905 84.9514 43.2621 83.5576 26.2338 66.9812C9.20553 50.4048 7.12561 24.9231 7.12561 24.9231C7.12561 24.9231 32.6541 26.3169 49.6824 42.8933Z" fill="white"/>
<path d="M77.2544 39.6876C65.8176 60.5187 71.2798 85.4949 71.2798 85.4949C71.2798 85.4949 95.2848 76.6971 106.722 55.8659C118.159 35.0347 112.696 10.0586 112.696 10.0586C112.696 10.0586 88.6913 18.8564 77.2544 39.6876Z" fill="#F7F9FD"/>
<path d="M87.2431 42.4591C88.0166 66.2107 71.8444 86.0123 71.8444 86.0123C71.8444 86.0123 54.4181 67.3049 53.6446 43.5533C52.8711 19.8016 69.0433 0 69.0433 0C69.0433 0 86.4696 18.7074 87.2431 42.4591Z" fill="white"/>
<path d="M69 181.312C89.4345 181.312 106 164.747 106 144.312C106 123.878 89.4345 107.312 69 107.312C48.5655 107.312 32 123.878 32 144.312C32 164.747 48.5655 181.312 69 181.312Z" fill="#E53641"/>
<path d="M69 135.312C75.6274 135.312 81 129.94 81 123.312C81 116.685 75.6274 111.312 69 111.312C62.3726 111.312 57 116.685 57 123.312C57 129.94 62.3726 135.312 69 135.312Z" fill="#F7F9FD"/>
</svg>
